<svg width="1384" height="397" viewBox="0 0 1384 397" fill="none" xmlns="http://www.w3.org/2000/svg">
<path d="M125.091 390.312H204.299V0.875031H127.291L0.229309 108.135L46.9838 162.04L125.091 93.2839V390.312Z" fill="#043A71" fill-opacity="0.1"/>
<path d="M549.07 0.875031H313.648L309.247 215.946C335.1 207.145 363.152 201.644 390.105 201.644C433.009 201.644 479.764 214.845 479.764 266C479.764 299.554 457.211 324.306 422.008 324.306C393.405 324.306 373.053 305.604 368.653 277.551L282.295 297.353C299.346 363.36 346.651 396.913 413.757 396.913C499.015 396.913 562.271 345.758 562.271 257.75C562.271 177.992 506.166 129.037 427.509 129.037C412.657 129.037 402.206 130.137 392.855 133.438L394.505 73.482H549.07V0.875031Z" fill="#043A71" fill-opacity="0.1"/>
<path d="M621.015 343.008C621.015 371.06 643.567 393.613 671.62 393.613C699.673 393.613 722.225 371.06 722.225 343.008C722.225 314.955 699.673 292.403 671.62 292.403C643.567 292.403 621.015 314.955 621.015 343.008Z" fill="#043A71" fill-opacity="0.1"/>
<path d="M1002.15 0.875031H901.486L816.228 133.988C791.476 173.042 769.474 207.145 769.474 263.25C769.474 343.558 833.28 396.913 914.688 396.913C996.095 396.913 1059.9 343.558 1059.9 263.25C1059.9 192.293 1010.95 136.188 937.79 136.188C928.439 136.188 919.638 137.838 910.837 140.038L1002.15 0.875031ZM977.394 259.95C977.394 295.153 951.541 321.006 914.688 321.006C877.834 321.006 851.982 295.153 851.982 259.95C851.982 224.746 877.834 198.894 914.688 198.894C951.541 198.894 977.394 224.746 977.394 259.95Z" fill="#043A71" fill-opacity="0.1"/>
<path d="M1131.85 390.312H1228.11L1383.77 73.482V0.875031H1098.84V76.7823H1291.36L1131.85 390.312Z" fill="#043A71" fill-opacity="0.1"/>
</svg>
