<svg width="1025" height="19" viewBox="0 0 1025 19" fill="none" xmlns="http://www.w3.org/2000/svg">
<path d="M1.7004 1.16663C1.3333 1.58616 1.22342 3.22928 1.7004 6.83052C2.50616 12.9142 1.7004 16.2704 1.7004 17.8437" stroke="#29140F" stroke-opacity="0.8" stroke-width="1.92924" stroke-linecap="round"/>
<path d="M14.925 17.8437C15.0838 17.6621 14.731 16.8524 14.925 13.214C15.0296 11.2518 14.925 11.3076 14.925 10.6268" stroke="#29140F" stroke-opacity="0.8" stroke-width="1.92924" stroke-linecap="round"/>
<path d="M27.7779 17.8437C28.3145 15.0888 27.7778 13.3164 27.7779 12.6247C27.7784 10.6597 27.7779 11.3076 27.7779 10.6268" stroke="#29140F" stroke-opacity="0.8" stroke-width="1.92924" stroke-linecap="round"/>
<path d="M40.8694 10.6268C40.7105 10.8084 41.0633 11.6182 40.8694 15.2565C40.7648 17.2188 40.8694 17.1629 40.8694 17.8437" stroke="#29140F" stroke-opacity="0.8" stroke-width="1.92924" stroke-linecap="round"/>
<path d="M54.0152 10.6268C54.0152 11.6278 53.736 12.6001 53.7359 13.2918C53.7354 15.2569 54.2113 16.3558 54.0152 17.8437" stroke="#29140F" stroke-opacity="0.8" stroke-width="1.92924" stroke-linecap="round"/>
<path d="M67.1869 1.16663C66.8198 1.58616 66.71 3.22928 67.1869 6.83052C67.9927 12.9142 67.1869 16.2704 67.1869 17.8437" stroke="#29140F" stroke-opacity="0.8" stroke-width="1.92924" stroke-linecap="round"/>
<path d="M80.4115 17.8437C80.5704 17.6621 80.2175 16.8524 80.4115 13.214C80.5161 11.2518 80.4115 11.3076 80.4115 10.6268" stroke="#29140F" stroke-opacity="0.8" stroke-width="1.92924" stroke-linecap="round"/>
<path d="M93.2645 17.8437C93.801 15.0888 93.2643 13.3164 93.2645 12.6247C93.265 10.6597 93.2645 11.3076 93.2645 10.6268" stroke="#29140F" stroke-opacity="0.8" stroke-width="1.92924" stroke-linecap="round"/>
<path d="M106.356 10.6268C106.197 10.8084 106.55 11.6182 106.356 15.2565C106.251 17.2188 106.356 17.1629 106.356 17.8437" stroke="#29140F" stroke-opacity="0.8" stroke-width="1.92924" stroke-linecap="round"/>
<path d="M119.502 10.6268C119.502 11.6278 119.223 12.6001 119.222 13.2918C119.222 15.2569 119.698 16.3558 119.502 17.8437" stroke="#29140F" stroke-opacity="0.8" stroke-width="1.92924" stroke-linecap="round"/>
<path d="M132.673 1.16663C132.306 1.58616 132.196 3.22928 132.673 6.83052C133.479 12.9142 132.673 16.2704 132.673 17.8437" stroke="#29140F" stroke-opacity="0.8" stroke-width="1.92924" stroke-linecap="round"/>
<path d="M145.898 17.8437C146.057 17.6621 145.704 16.8524 145.898 13.214C146.003 11.2518 145.898 11.3076 145.898 10.6268" stroke="#29140F" stroke-opacity="0.8" stroke-width="1.92924" stroke-linecap="round"/>
<path d="M158.751 17.8437C159.288 15.0888 158.751 13.3164 158.751 12.6247C158.751 10.6597 158.751 11.3076 158.751 10.6268" stroke="#29140F" stroke-opacity="0.8" stroke-width="1.92924" stroke-linecap="round"/>
<path d="M171.842 10.6268C171.684 10.8084 172.036 11.6182 171.842 15.2565C171.738 17.2188 171.842 17.1629 171.842 17.8437" stroke="#29140F" stroke-opacity="0.8" stroke-width="1.92924" stroke-linecap="round"/>
<path d="M184.988 10.6268C184.988 11.6278 184.709 12.6001 184.709 13.2918C184.708 15.2569 185.184 16.3558 184.988 17.8437" stroke="#29140F" stroke-opacity="0.8" stroke-width="1.92924" stroke-linecap="round"/>
<path d="M198.16 1.16663C197.793 1.58616 197.683 3.22928 198.16 6.83052C198.966 12.9142 198.16 16.2704 198.16 17.8437" stroke="#29140F" stroke-opacity="0.8" stroke-width="1.92924" stroke-linecap="round"/>
<path d="M211.385 17.8437C211.543 17.6621 211.191 16.8524 211.385 13.214C211.489 11.2518 211.385 11.3076 211.385 10.6268" stroke="#29140F" stroke-opacity="0.8" stroke-width="1.92924" stroke-linecap="round"/>
<path d="M224.238 17.8437C224.774 15.0888 224.237 13.3164 224.238 12.6247C224.238 10.6597 224.238 11.3076 224.238 10.6268" stroke="#29140F" stroke-opacity="0.8" stroke-width="1.92924" stroke-linecap="round"/>
<path d="M237.329 10.6268C237.17 10.8084 237.523 11.6182 237.329 15.2565C237.224 17.2188 237.329 17.1629 237.329 17.8437" stroke="#29140F" stroke-opacity="0.8" stroke-width="1.92924" stroke-linecap="round"/>
<path d="M250.475 10.6268C250.475 11.6278 250.196 12.6001 250.195 13.2918C250.195 15.2569 250.671 16.3558 250.475 17.8437" stroke="#29140F" stroke-opacity="0.8" stroke-width="1.92924" stroke-linecap="round"/>
<path d="M263.647 1.16663C263.279 1.58616 263.17 3.22928 263.647 6.83052C264.452 12.9142 263.647 16.2704 263.647 17.8437" stroke="#29140F" stroke-opacity="0.8" stroke-width="1.92924" stroke-linecap="round"/>
<path d="M276.871 17.8437C277.03 17.6621 276.677 16.8524 276.871 13.214C276.976 11.2518 276.871 11.3076 276.871 10.6268" stroke="#29140F" stroke-opacity="0.8" stroke-width="1.92924" stroke-linecap="round"/>
<path d="M289.724 17.8437C290.261 15.0888 289.724 13.3164 289.724 12.6247C289.725 10.6597 289.724 11.3076 289.724 10.6268" stroke="#29140F" stroke-opacity="0.8" stroke-width="1.92924" stroke-linecap="round"/>
<path d="M302.816 10.6268C302.657 10.8084 303.01 11.6182 302.816 15.2565C302.711 17.2188 302.816 17.1629 302.816 17.8437" stroke="#29140F" stroke-opacity="0.8" stroke-width="1.92924" stroke-linecap="round"/>
<path d="M315.961 10.6268C315.961 11.6278 315.682 12.6001 315.682 13.2918C315.681 15.2569 316.157 16.3558 315.961 17.8437" stroke="#29140F" stroke-opacity="0.8" stroke-width="1.92924" stroke-linecap="round"/>
<path d="M329.133 1.16663C328.766 1.58616 328.656 3.22928 329.133 6.83052C329.939 12.9142 329.133 16.2704 329.133 17.8437" stroke="#29140F" stroke-opacity="0.8" stroke-width="1.92924" stroke-linecap="round"/>
<path d="M342.358 17.8437C342.516 17.6621 342.164 16.8524 342.358 13.214C342.462 11.2518 342.358 11.3076 342.358 10.6268" stroke="#29140F" stroke-opacity="0.8" stroke-width="1.92924" stroke-linecap="round"/>
<path d="M355.211 17.8437C355.747 15.0888 355.21 13.3164 355.211 12.6247C355.211 10.6597 355.211 11.3076 355.211 10.6268" stroke="#29140F" stroke-opacity="0.8" stroke-width="1.92924" stroke-linecap="round"/>
<path d="M368.302 10.6268C368.143 10.8084 368.496 11.6182 368.302 15.2565C368.197 17.2188 368.302 17.1629 368.302 17.8437" stroke="#29140F" stroke-opacity="0.8" stroke-width="1.92924" stroke-linecap="round"/>
<path d="M381.448 10.6268C381.448 11.6278 381.169 12.6001 381.169 13.2918C381.168 15.2569 381.644 16.3558 381.448 17.8437" stroke="#29140F" stroke-opacity="0.8" stroke-width="1.92924" stroke-linecap="round"/>
<path d="M394.62 1.16663C394.253 1.58616 394.143 3.22928 394.62 6.83052C395.425 12.9142 394.62 16.2704 394.62 17.8437" stroke="#29140F" stroke-opacity="0.8" stroke-width="1.92924" stroke-linecap="round"/>
<path d="M407.844 17.8437C408.003 17.6621 407.65 16.8524 407.844 13.214C407.949 11.2518 407.844 11.3076 407.844 10.6268" stroke="#29140F" stroke-opacity="0.8" stroke-width="1.92924" stroke-linecap="round"/>
<path d="M420.697 17.8437C421.234 15.0888 420.697 13.3164 420.697 12.6247C420.698 10.6597 420.697 11.3076 420.697 10.6268" stroke="#29140F" stroke-opacity="0.8" stroke-width="1.92924" stroke-linecap="round"/>
<path d="M433.789 10.6268C433.63 10.8084 433.983 11.6182 433.789 15.2565C433.684 17.2188 433.789 17.1629 433.789 17.8437" stroke="#29140F" stroke-opacity="0.8" stroke-width="1.92924" stroke-linecap="round"/>
<path d="M446.934 10.6268C446.934 11.6278 446.655 12.6001 446.655 13.2918C446.655 15.2569 447.131 16.3558 446.934 17.8437" stroke="#29140F" stroke-opacity="0.8" stroke-width="1.92924" stroke-linecap="round"/>
<path d="M460.106 1.16663C459.739 1.58616 459.629 3.22928 460.106 6.83052C460.912 12.9142 460.106 16.2704 460.106 17.8437" stroke="#29140F" stroke-opacity="0.8" stroke-width="1.92924" stroke-linecap="round"/>
<path d="M473.331 17.8437C473.49 17.6621 473.137 16.8524 473.331 13.214C473.435 11.2518 473.331 11.3076 473.331 10.6268" stroke="#29140F" stroke-opacity="0.8" stroke-width="1.92924" stroke-linecap="round"/>
<path d="M486.184 17.8437C486.72 15.0888 486.184 13.3164 486.184 12.6247C486.184 10.6597 486.184 11.3076 486.184 10.6268" stroke="#29140F" stroke-opacity="0.8" stroke-width="1.92924" stroke-linecap="round"/>
<path d="M499.275 10.6268C499.116 10.8084 499.469 11.6182 499.275 15.2565C499.171 17.2188 499.275 17.1629 499.275 17.8437" stroke="#29140F" stroke-opacity="0.8" stroke-width="1.92924" stroke-linecap="round"/>
<path d="M512.421 10.6268C512.421 11.6278 512.142 12.6001 512.142 13.2918C512.141 15.2569 512.617 16.3558 512.421 17.8437" stroke="#29140F" stroke-opacity="0.8" stroke-width="1.92924" stroke-linecap="round"/>
<path d="M525.593 1.16663C525.226 1.58616 525.116 3.22928 525.593 6.83052C526.398 12.9142 525.593 16.2704 525.593 17.8437" stroke="#29140F" stroke-opacity="0.8" stroke-width="1.92924" stroke-linecap="round"/>
<path d="M538.817 17.8437C538.976 17.6621 538.623 16.8524 538.817 13.214C538.922 11.2518 538.817 11.3076 538.817 10.6268" stroke="#29140F" stroke-opacity="0.8" stroke-width="1.92924" stroke-linecap="round"/>
<path d="M551.67 17.8437C552.207 15.0888 551.67 13.3164 551.67 12.6247C551.671 10.6597 551.67 11.3076 551.67 10.6268" stroke="#29140F" stroke-opacity="0.8" stroke-width="1.92924" stroke-linecap="round"/>
<path d="M564.762 10.6268C564.603 10.8084 564.956 11.6182 564.762 15.2565C564.657 17.2188 564.762 17.1629 564.762 17.8437" stroke="#29140F" stroke-opacity="0.8" stroke-width="1.92924" stroke-linecap="round"/>
<path d="M577.907 10.6268C577.907 11.6278 577.628 12.6001 577.628 13.2918C577.628 15.2569 578.104 16.3558 577.907 17.8437" stroke="#29140F" stroke-opacity="0.8" stroke-width="1.92924" stroke-linecap="round"/>
<path d="M591.079 1.16663C590.712 1.58616 590.602 3.22928 591.079 6.83052C591.885 12.9142 591.079 16.2704 591.079 17.8437" stroke="#29140F" stroke-opacity="0.8" stroke-width="1.92924" stroke-linecap="round"/>
<path d="M604.304 17.8437C604.463 17.6621 604.11 16.8524 604.304 13.214C604.408 11.2518 604.304 11.3076 604.304 10.6268" stroke="#29140F" stroke-opacity="0.8" stroke-width="1.92924" stroke-linecap="round"/>
<path d="M617.157 17.8437C617.693 15.0888 617.157 13.3164 617.157 12.6247C617.157 10.6597 617.157 11.3076 617.157 10.6268" stroke="#29140F" stroke-opacity="0.8" stroke-width="1.92924" stroke-linecap="round"/>
<path d="M630.248 10.6268C630.089 10.8084 630.442 11.6182 630.248 15.2565C630.144 17.2188 630.248 17.1629 630.248 17.8437" stroke="#29140F" stroke-opacity="0.8" stroke-width="1.92924" stroke-linecap="round"/>
<path d="M643.394 10.6268C643.394 11.6278 643.115 12.6001 643.115 13.2918C643.114 15.2569 643.59 16.3558 643.394 17.8437" stroke="#29140F" stroke-opacity="0.8" stroke-width="1.92924" stroke-linecap="round"/>
<path d="M656.566 1.16663C656.199 1.58616 656.089 3.22928 656.566 6.83052C657.372 12.9142 656.566 16.2704 656.566 17.8437" stroke="#29140F" stroke-opacity="0.8" stroke-width="1.92924" stroke-linecap="round"/>
<path d="M669.79 17.8437C669.949 17.6621 669.596 16.8524 669.79 13.214C669.895 11.2518 669.79 11.3076 669.79 10.6268" stroke="#29140F" stroke-opacity="0.8" stroke-width="1.92924" stroke-linecap="round"/>
<path d="M682.643 17.8437C683.18 15.0888 682.643 13.3164 682.643 12.6247C682.644 10.6597 682.643 11.3076 682.643 10.6268" stroke="#29140F" stroke-opacity="0.8" stroke-width="1.92924" stroke-linecap="round"/>
<path d="M695.735 10.6268C695.576 10.8084 695.929 11.6182 695.735 15.2565C695.63 17.2188 695.735 17.1629 695.735 17.8437" stroke="#29140F" stroke-opacity="0.8" stroke-width="1.92924" stroke-linecap="round"/>
<path d="M708.88 10.6268C708.88 11.6278 708.601 12.6001 708.601 13.2918C708.601 15.2569 709.077 16.3558 708.88 17.8437" stroke="#29140F" stroke-opacity="0.8" stroke-width="1.92924" stroke-linecap="round"/>
<path d="M722.052 1.16663C721.685 1.58616 721.575 3.22928 722.052 6.83052C722.858 12.9142 722.052 16.2704 722.052 17.8437" stroke="#29140F" stroke-opacity="0.8" stroke-width="1.92924" stroke-linecap="round"/>
<path d="M735.277 17.8437C735.436 17.6621 735.083 16.8524 735.277 13.214C735.381 11.2518 735.277 11.3076 735.277 10.6268" stroke="#29140F" stroke-opacity="0.8" stroke-width="1.92924" stroke-linecap="round"/>
<path d="M748.13 17.8437C748.666 15.0888 748.13 13.3164 748.13 12.6247C748.13 10.6597 748.13 11.3076 748.13 10.6268" stroke="#29140F" stroke-opacity="0.8" stroke-width="1.92924" stroke-linecap="round"/>
<path d="M761.221 10.6268C761.062 10.8084 761.415 11.6182 761.221 15.2565C761.117 17.2188 761.221 17.1629 761.221 17.8437" stroke="#29140F" stroke-opacity="0.8" stroke-width="1.92924" stroke-linecap="round"/>
<path d="M774.367 10.6268C774.367 11.6278 774.088 12.6001 774.088 13.2918C774.087 15.2569 774.563 16.3558 774.367 17.8437" stroke="#29140F" stroke-opacity="0.8" stroke-width="1.92924" stroke-linecap="round"/>
<path d="M787.539 1.16663C787.172 1.58616 787.062 3.22928 787.539 6.83052C788.345 12.9142 787.539 16.2704 787.539 17.8437" stroke="#29140F" stroke-opacity="0.8" stroke-width="1.92924" stroke-linecap="round"/>
<path d="M800.763 17.8437C800.922 17.6621 800.569 16.8524 800.763 13.214C800.868 11.2518 800.763 11.3076 800.763 10.6268" stroke="#29140F" stroke-opacity="0.8" stroke-width="1.92924" stroke-linecap="round"/>
<path d="M813.616 17.8437C814.153 15.0888 813.616 13.3164 813.616 12.6247C813.617 10.6597 813.616 11.3076 813.616 10.6268" stroke="#29140F" stroke-opacity="0.8" stroke-width="1.92924" stroke-linecap="round"/>
<path d="M826.708 10.6268C826.549 10.8084 826.902 11.6182 826.708 15.2565C826.603 17.2188 826.708 17.1629 826.708 17.8437" stroke="#29140F" stroke-opacity="0.8" stroke-width="1.92924" stroke-linecap="round"/>
<path d="M839.854 10.6268C839.854 11.6278 839.574 12.6001 839.574 13.2918C839.574 15.2569 840.05 16.3558 839.854 17.8437" stroke="#29140F" stroke-opacity="0.8" stroke-width="1.92924" stroke-linecap="round"/>
<path d="M853.025 1.16663C852.658 1.58616 852.548 3.22928 853.025 6.83052C853.831 12.9142 853.025 16.2704 853.025 17.8437" stroke="#29140F" stroke-opacity="0.8" stroke-width="1.92924" stroke-linecap="round"/>
<path d="M866.25 17.8437C866.409 17.6621 866.056 16.8524 866.25 13.214C866.355 11.2518 866.25 11.3076 866.25 10.6268" stroke="#29140F" stroke-opacity="0.8" stroke-width="1.92924" stroke-linecap="round"/>
<path d="M879.103 17.8437C879.639 15.0888 879.103 13.3164 879.103 12.6247C879.103 10.6597 879.103 11.3076 879.103 10.6268" stroke="#29140F" stroke-opacity="0.8" stroke-width="1.92924" stroke-linecap="round"/>
<path d="M892.194 10.6268C892.036 10.8084 892.388 11.6182 892.194 15.2565C892.09 17.2188 892.194 17.1629 892.194 17.8437" stroke="#29140F" stroke-opacity="0.8" stroke-width="1.92924" stroke-linecap="round"/>
<path d="M905.34 10.6268C905.34 11.6278 905.061 12.6001 905.061 13.2918C905.06 15.2569 905.536 16.3558 905.34 17.8437" stroke="#29140F" stroke-opacity="0.8" stroke-width="1.92924" stroke-linecap="round"/>
<path d="M918.512 1.16663C918.145 1.58616 918.035 3.22928 918.512 6.83052C919.318 12.9142 918.512 16.2704 918.512 17.8437" stroke="#29140F" stroke-opacity="0.8" stroke-width="1.92924" stroke-linecap="round"/>
<path d="M931.736 17.8437C931.895 17.6621 931.542 16.8524 931.736 13.214C931.841 11.2518 931.736 11.3076 931.736 10.6268" stroke="#29140F" stroke-opacity="0.8" stroke-width="1.92924" stroke-linecap="round"/>
<path d="M944.589 17.8437C945.126 15.0888 944.589 13.3164 944.589 12.6247C944.59 10.6597 944.589 11.3076 944.589 10.6268" stroke="#29140F" stroke-opacity="0.8" stroke-width="1.92924" stroke-linecap="round"/>
<path d="M957.681 10.6268C957.522 10.8084 957.875 11.6182 957.681 15.2565C957.576 17.2188 957.681 17.1629 957.681 17.8437" stroke="#29140F" stroke-opacity="0.8" stroke-width="1.92924" stroke-linecap="round"/>
<path d="M970.827 10.6268C970.827 11.6278 970.548 12.6001 970.547 13.2918C970.547 15.2569 971.023 16.3558 970.827 17.8437" stroke="#29140F" stroke-opacity="0.8" stroke-width="1.92924" stroke-linecap="round"/>
<path d="M983.998 1.16663C983.631 1.58616 983.521 3.22928 983.998 6.83052C984.804 12.9142 983.998 16.2704 983.998 17.8437" stroke="#29140F" stroke-opacity="0.8" stroke-width="1.92924" stroke-linecap="round"/>
<path d="M997.223 17.8437C997.382 17.6621 997.029 16.8524 997.223 13.214C997.328 11.2518 997.223 11.3076 997.223 10.6268" stroke="#29140F" stroke-opacity="0.8" stroke-width="1.92924" stroke-linecap="round"/>
<path d="M1010.08 17.8437C1010.61 15.0888 1010.08 13.3164 1010.08 12.6247C1010.08 10.6597 1010.08 11.3076 1010.08 10.6268" stroke="#29140F" stroke-opacity="0.8" stroke-width="1.92924" stroke-linecap="round"/>
<path d="M1023.17 10.6268C1023.01 10.8084 1023.36 11.6182 1023.17 15.2565C1023.06 17.2188 1023.17 17.1629 1023.17 17.8437" stroke="#29140F" stroke-opacity="0.8" stroke-width="1.92924" stroke-linecap="round"/>
</svg>
