<svg width="1025" height="19" viewBox="0 0 1025 19" fill="none" xmlns="http://www.w3.org/2000/svg">
<path d="M1.54949 1.16663C1.18239 1.58616 1.07251 3.22928 1.54949 6.83052C2.35525 12.9142 1.54949 16.2704 1.54949 17.8437" stroke="#29140F" stroke-opacity="0.8" stroke-width="1.92924" stroke-linecap="round"/>
<path d="M14.7741 17.8437C14.9329 17.6621 14.5801 16.8524 14.7741 13.214C14.8787 11.2518 14.7741 11.3076 14.7741 10.6268" stroke="#29140F" stroke-opacity="0.8" stroke-width="1.92924" stroke-linecap="round"/>
<path d="M27.6271 17.8437C28.1636 15.0888 27.6269 13.3164 27.6271 12.6247C27.6276 10.6597 27.6271 11.3076 27.6271 10.6268" stroke="#29140F" stroke-opacity="0.8" stroke-width="1.92924" stroke-linecap="round"/>
<path d="M40.7185 10.6268C40.5596 10.8084 40.9124 11.6182 40.7185 15.2565C40.6138 17.2188 40.7185 17.1629 40.7185 17.8437" stroke="#29140F" stroke-opacity="0.8" stroke-width="1.92924" stroke-linecap="round"/>
<path d="M53.8642 10.6268C53.8643 11.6278 53.5851 12.6001 53.585 13.2918C53.5845 15.2569 54.0604 16.3558 53.8642 17.8437" stroke="#29140F" stroke-opacity="0.8" stroke-width="1.92924" stroke-linecap="round"/>
<path d="M67.036 1.16663C66.6689 1.58616 66.5591 3.22928 67.036 6.83052C67.8418 12.9142 67.036 16.2704 67.036 17.8437" stroke="#29140F" stroke-opacity="0.8" stroke-width="1.92924" stroke-linecap="round"/>
<path d="M80.2606 17.8437C80.4195 17.6621 80.0666 16.8524 80.2606 13.214C80.3652 11.2518 80.2606 11.3076 80.2606 10.6268" stroke="#29140F" stroke-opacity="0.8" stroke-width="1.92924" stroke-linecap="round"/>
<path d="M93.1136 17.8437C93.6501 15.0888 93.1134 13.3164 93.1136 12.6247C93.1141 10.6597 93.1136 11.3076 93.1136 10.6268" stroke="#29140F" stroke-opacity="0.8" stroke-width="1.92924" stroke-linecap="round"/>
<path d="M106.205 10.6268C106.046 10.8084 106.399 11.6182 106.205 15.2565C106.1 17.2188 106.205 17.1629 106.205 17.8437" stroke="#29140F" stroke-opacity="0.8" stroke-width="1.92924" stroke-linecap="round"/>
<path d="M119.351 10.6268C119.351 11.6278 119.072 12.6001 119.072 13.2918C119.071 15.2569 119.547 16.3558 119.351 17.8437" stroke="#29140F" stroke-opacity="0.8" stroke-width="1.92924" stroke-linecap="round"/>
<path d="M132.523 1.16663C132.155 1.58616 132.046 3.22928 132.523 6.83052C133.328 12.9142 132.523 16.2704 132.523 17.8437" stroke="#29140F" stroke-opacity="0.8" stroke-width="1.92924" stroke-linecap="round"/>
<path d="M145.747 17.8437C145.906 17.6621 145.553 16.8524 145.747 13.214C145.852 11.2518 145.747 11.3076 145.747 10.6268" stroke="#29140F" stroke-opacity="0.8" stroke-width="1.92924" stroke-linecap="round"/>
<path d="M158.6 17.8437C159.137 15.0888 158.6 13.3164 158.6 12.6247C158.601 10.6597 158.6 11.3076 158.6 10.6268" stroke="#29140F" stroke-opacity="0.8" stroke-width="1.92924" stroke-linecap="round"/>
<path d="M171.692 10.6268C171.533 10.8084 171.886 11.6182 171.692 15.2565C171.587 17.2188 171.692 17.1629 171.692 17.8437" stroke="#29140F" stroke-opacity="0.8" stroke-width="1.92924" stroke-linecap="round"/>
<path d="M184.837 10.6268C184.837 11.6278 184.558 12.6001 184.558 13.2918C184.558 15.2569 185.034 16.3558 184.837 17.8437" stroke="#29140F" stroke-opacity="0.8" stroke-width="1.92924" stroke-linecap="round"/>
<path d="M198.009 1.16663C197.642 1.58616 197.532 3.22928 198.009 6.83052C198.815 12.9142 198.009 16.2704 198.009 17.8437" stroke="#29140F" stroke-opacity="0.8" stroke-width="1.92924" stroke-linecap="round"/>
<path d="M211.234 17.8437C211.393 17.6621 211.04 16.8524 211.234 13.214C211.338 11.2518 211.234 11.3076 211.234 10.6268" stroke="#29140F" stroke-opacity="0.8" stroke-width="1.92924" stroke-linecap="round"/>
<path d="M224.087 17.8437C224.623 15.0888 224.086 13.3164 224.087 12.6247C224.087 10.6597 224.087 11.3076 224.087 10.6268" stroke="#29140F" stroke-opacity="0.8" stroke-width="1.92924" stroke-linecap="round"/>
<path d="M237.178 10.6268C237.019 10.8084 237.372 11.6182 237.178 15.2565C237.073 17.2188 237.178 17.1629 237.178 17.8437" stroke="#29140F" stroke-opacity="0.8" stroke-width="1.92924" stroke-linecap="round"/>
<path d="M250.324 10.6268C250.324 11.6278 250.045 12.6001 250.045 13.2918C250.044 15.2569 250.52 16.3558 250.324 17.8437" stroke="#29140F" stroke-opacity="0.8" stroke-width="1.92924" stroke-linecap="round"/>
<path d="M263.496 1.16663C263.129 1.58616 263.019 3.22928 263.496 6.83052C264.301 12.9142 263.496 16.2704 263.496 17.8437" stroke="#29140F" stroke-opacity="0.8" stroke-width="1.92924" stroke-linecap="round"/>
<path d="M276.72 17.8437C276.879 17.6621 276.526 16.8524 276.72 13.214C276.825 11.2518 276.72 11.3076 276.72 10.6268" stroke="#29140F" stroke-opacity="0.8" stroke-width="1.92924" stroke-linecap="round"/>
<path d="M289.573 17.8437C290.11 15.0888 289.573 13.3164 289.573 12.6247C289.574 10.6597 289.573 11.3076 289.573 10.6268" stroke="#29140F" stroke-opacity="0.8" stroke-width="1.92924" stroke-linecap="round"/>
<path d="M302.665 10.6268C302.506 10.8084 302.859 11.6182 302.665 15.2565C302.56 17.2188 302.665 17.1629 302.665 17.8437" stroke="#29140F" stroke-opacity="0.8" stroke-width="1.92924" stroke-linecap="round"/>
<path d="M315.81 10.6268C315.81 11.6278 315.531 12.6001 315.531 13.2918C315.531 15.2569 316.007 16.3558 315.81 17.8437" stroke="#29140F" stroke-opacity="0.8" stroke-width="1.92924" stroke-linecap="round"/>
<path d="M328.982 1.16663C328.615 1.58616 328.505 3.22928 328.982 6.83052C329.788 12.9142 328.982 16.2704 328.982 17.8437" stroke="#29140F" stroke-opacity="0.8" stroke-width="1.92924" stroke-linecap="round"/>
<path d="M342.207 17.8437C342.366 17.6621 342.013 16.8524 342.207 13.214C342.311 11.2518 342.207 11.3076 342.207 10.6268" stroke="#29140F" stroke-opacity="0.8" stroke-width="1.92924" stroke-linecap="round"/>
<path d="M355.06 17.8437C355.596 15.0888 355.06 13.3164 355.06 12.6247C355.06 10.6597 355.06 11.3076 355.06 10.6268" stroke="#29140F" stroke-opacity="0.8" stroke-width="1.92924" stroke-linecap="round"/>
<path d="M368.151 10.6268C367.992 10.8084 368.345 11.6182 368.151 15.2565C368.047 17.2188 368.151 17.1629 368.151 17.8437" stroke="#29140F" stroke-opacity="0.8" stroke-width="1.92924" stroke-linecap="round"/>
<path d="M381.297 10.6268C381.297 11.6278 381.018 12.6001 381.018 13.2918C381.017 15.2569 381.493 16.3558 381.297 17.8437" stroke="#29140F" stroke-opacity="0.8" stroke-width="1.92924" stroke-linecap="round"/>
<path d="M394.469 1.16663C394.102 1.58616 393.992 3.22928 394.469 6.83052C395.274 12.9142 394.469 16.2704 394.469 17.8437" stroke="#29140F" stroke-opacity="0.8" stroke-width="1.92924" stroke-linecap="round"/>
<path d="M407.693 17.8437C407.852 17.6621 407.499 16.8524 407.693 13.214C407.798 11.2518 407.693 11.3076 407.693 10.6268" stroke="#29140F" stroke-opacity="0.8" stroke-width="1.92924" stroke-linecap="round"/>
<path d="M420.546 17.8437C421.083 15.0888 420.546 13.3164 420.546 12.6247C420.547 10.6597 420.546 11.3076 420.546 10.6268" stroke="#29140F" stroke-opacity="0.8" stroke-width="1.92924" stroke-linecap="round"/>
<path d="M433.638 10.6268C433.479 10.8084 433.832 11.6182 433.638 15.2565C433.533 17.2188 433.638 17.1629 433.638 17.8437" stroke="#29140F" stroke-opacity="0.8" stroke-width="1.92924" stroke-linecap="round"/>
<path d="M446.783 10.6268C446.783 11.6278 446.504 12.6001 446.504 13.2918C446.504 15.2569 446.98 16.3558 446.783 17.8437" stroke="#29140F" stroke-opacity="0.8" stroke-width="1.92924" stroke-linecap="round"/>
<path d="M459.955 1.16663C459.588 1.58616 459.478 3.22928 459.955 6.83052C460.761 12.9142 459.955 16.2704 459.955 17.8437" stroke="#29140F" stroke-opacity="0.8" stroke-width="1.92924" stroke-linecap="round"/>
<path d="M473.18 17.8437C473.339 17.6621 472.986 16.8524 473.18 13.214C473.284 11.2518 473.18 11.3076 473.18 10.6268" stroke="#29140F" stroke-opacity="0.8" stroke-width="1.92924" stroke-linecap="round"/>
<path d="M486.033 17.8437C486.569 15.0888 486.033 13.3164 486.033 12.6247C486.033 10.6597 486.033 11.3076 486.033 10.6268" stroke="#29140F" stroke-opacity="0.8" stroke-width="1.92924" stroke-linecap="round"/>
<path d="M499.124 10.6268C498.965 10.8084 499.318 11.6182 499.124 15.2565C499.02 17.2188 499.124 17.1629 499.124 17.8437" stroke="#29140F" stroke-opacity="0.8" stroke-width="1.92924" stroke-linecap="round"/>
<path d="M512.27 10.6268C512.27 11.6278 511.991 12.6001 511.991 13.2918C511.99 15.2569 512.466 16.3558 512.27 17.8437" stroke="#29140F" stroke-opacity="0.8" stroke-width="1.92924" stroke-linecap="round"/>
<path d="M525.442 1.16663C525.075 1.58616 524.965 3.22928 525.442 6.83052C526.248 12.9142 525.442 16.2704 525.442 17.8437" stroke="#29140F" stroke-opacity="0.8" stroke-width="1.92924" stroke-linecap="round"/>
<path d="M538.666 17.8437C538.825 17.6621 538.472 16.8524 538.666 13.214C538.771 11.2518 538.666 11.3076 538.666 10.6268" stroke="#29140F" stroke-opacity="0.8" stroke-width="1.92924" stroke-linecap="round"/>
<path d="M551.519 17.8437C552.056 15.0888 551.519 13.3164 551.519 12.6247C551.52 10.6597 551.519 11.3076 551.519 10.6268" stroke="#29140F" stroke-opacity="0.8" stroke-width="1.92924" stroke-linecap="round"/>
<path d="M564.611 10.6268C564.452 10.8084 564.805 11.6182 564.611 15.2565C564.506 17.2188 564.611 17.1629 564.611 17.8437" stroke="#29140F" stroke-opacity="0.8" stroke-width="1.92924" stroke-linecap="round"/>
<path d="M577.756 10.6268C577.757 11.6278 577.477 12.6001 577.477 13.2918C577.477 15.2569 577.953 16.3558 577.756 17.8437" stroke="#29140F" stroke-opacity="0.8" stroke-width="1.92924" stroke-linecap="round"/>
<path d="M590.928 1.16663C590.561 1.58616 590.451 3.22928 590.928 6.83052C591.734 12.9142 590.928 16.2704 590.928 17.8437" stroke="#29140F" stroke-opacity="0.8" stroke-width="1.92924" stroke-linecap="round"/>
<path d="M604.153 17.8437C604.312 17.6621 603.959 16.8524 604.153 13.214C604.258 11.2518 604.153 11.3076 604.153 10.6268" stroke="#29140F" stroke-opacity="0.8" stroke-width="1.92924" stroke-linecap="round"/>
<path d="M617.006 17.8437C617.542 15.0888 617.006 13.3164 617.006 12.6247C617.006 10.6597 617.006 11.3076 617.006 10.6268" stroke="#29140F" stroke-opacity="0.8" stroke-width="1.92924" stroke-linecap="round"/>
<path d="M630.097 10.6268C629.938 10.8084 630.291 11.6182 630.097 15.2565C629.993 17.2188 630.097 17.1629 630.097 17.8437" stroke="#29140F" stroke-opacity="0.8" stroke-width="1.92924" stroke-linecap="round"/>
<path d="M643.243 10.6268C643.243 11.6278 642.964 12.6001 642.964 13.2918C642.963 15.2569 643.439 16.3558 643.243 17.8437" stroke="#29140F" stroke-opacity="0.8" stroke-width="1.92924" stroke-linecap="round"/>
<path d="M656.415 1.16663C656.048 1.58616 655.938 3.22928 656.415 6.83052C657.221 12.9142 656.415 16.2704 656.415 17.8437" stroke="#29140F" stroke-opacity="0.8" stroke-width="1.92924" stroke-linecap="round"/>
<path d="M669.639 17.8437C669.798 17.6621 669.445 16.8524 669.639 13.214C669.744 11.2518 669.639 11.3076 669.639 10.6268" stroke="#29140F" stroke-opacity="0.8" stroke-width="1.92924" stroke-linecap="round"/>
<path d="M682.492 17.8437C683.029 15.0888 682.492 13.3164 682.492 12.6247C682.493 10.6597 682.492 11.3076 682.492 10.6268" stroke="#29140F" stroke-opacity="0.8" stroke-width="1.92924" stroke-linecap="round"/>
<path d="M695.584 10.6268C695.425 10.8084 695.778 11.6182 695.584 15.2565C695.479 17.2188 695.584 17.1629 695.584 17.8437" stroke="#29140F" stroke-opacity="0.8" stroke-width="1.92924" stroke-linecap="round"/>
<path d="M708.73 10.6268C708.73 11.6278 708.45 12.6001 708.45 13.2918C708.45 15.2569 708.926 16.3558 708.73 17.8437" stroke="#29140F" stroke-opacity="0.8" stroke-width="1.92924" stroke-linecap="round"/>
<path d="M721.901 1.16663C721.534 1.58616 721.424 3.22928 721.901 6.83052C722.707 12.9142 721.901 16.2704 721.901 17.8437" stroke="#29140F" stroke-opacity="0.8" stroke-width="1.92924" stroke-linecap="round"/>
<path d="M735.126 17.8437C735.285 17.6621 734.932 16.8524 735.126 13.214C735.231 11.2518 735.126 11.3076 735.126 10.6268" stroke="#29140F" stroke-opacity="0.8" stroke-width="1.92924" stroke-linecap="round"/>
<path d="M747.979 17.8437C748.515 15.0888 747.979 13.3164 747.979 12.6247C747.979 10.6597 747.979 11.3076 747.979 10.6268" stroke="#29140F" stroke-opacity="0.8" stroke-width="1.92924" stroke-linecap="round"/>
<path d="M761.07 10.6268C760.912 10.8084 761.264 11.6182 761.07 15.2565C760.966 17.2188 761.07 17.1629 761.07 17.8437" stroke="#29140F" stroke-opacity="0.8" stroke-width="1.92924" stroke-linecap="round"/>
<path d="M774.216 10.6268C774.216 11.6278 773.937 12.6001 773.937 13.2918C773.936 15.2569 774.412 16.3558 774.216 17.8437" stroke="#29140F" stroke-opacity="0.8" stroke-width="1.92924" stroke-linecap="round"/>
<path d="M787.388 1.16663C787.021 1.58616 786.911 3.22928 787.388 6.83052C788.194 12.9142 787.388 16.2704 787.388 17.8437" stroke="#29140F" stroke-opacity="0.8" stroke-width="1.92924" stroke-linecap="round"/>
<path d="M800.612 17.8437C800.771 17.6621 800.419 16.8524 800.612 13.214C800.717 11.2518 800.612 11.3076 800.612 10.6268" stroke="#29140F" stroke-opacity="0.8" stroke-width="1.92924" stroke-linecap="round"/>
<path d="M813.465 17.8437C814.002 15.0888 813.465 13.3164 813.465 12.6247C813.466 10.6597 813.465 11.3076 813.465 10.6268" stroke="#29140F" stroke-opacity="0.8" stroke-width="1.92924" stroke-linecap="round"/>
<path d="M826.557 10.6268C826.398 10.8084 826.751 11.6182 826.557 15.2565C826.452 17.2188 826.557 17.1629 826.557 17.8437" stroke="#29140F" stroke-opacity="0.8" stroke-width="1.92924" stroke-linecap="round"/>
<path d="M839.703 10.6268C839.703 11.6278 839.424 12.6001 839.423 13.2918C839.423 15.2569 839.899 16.3558 839.703 17.8437" stroke="#29140F" stroke-opacity="0.8" stroke-width="1.92924" stroke-linecap="round"/>
<path d="M852.874 1.16663C852.507 1.58616 852.397 3.22928 852.874 6.83052C853.68 12.9142 852.874 16.2704 852.874 17.8437" stroke="#29140F" stroke-opacity="0.8" stroke-width="1.92924" stroke-linecap="round"/>
<path d="M866.099 17.8437C866.258 17.6621 865.905 16.8524 866.099 13.214C866.204 11.2518 866.099 11.3076 866.099 10.6268" stroke="#29140F" stroke-opacity="0.8" stroke-width="1.92924" stroke-linecap="round"/>
<path d="M878.952 17.8437C879.489 15.0888 878.952 13.3164 878.952 12.6247C878.953 10.6597 878.952 11.3076 878.952 10.6268" stroke="#29140F" stroke-opacity="0.8" stroke-width="1.92924" stroke-linecap="round"/>
<path d="M892.043 10.6268C891.885 10.8084 892.237 11.6182 892.043 15.2565C891.939 17.2188 892.043 17.1629 892.043 17.8437" stroke="#29140F" stroke-opacity="0.8" stroke-width="1.92924" stroke-linecap="round"/>
<path d="M905.189 10.6268C905.189 11.6278 904.91 12.6001 904.91 13.2918C904.909 15.2569 905.385 16.3558 905.189 17.8437" stroke="#29140F" stroke-opacity="0.8" stroke-width="1.92924" stroke-linecap="round"/>
<path d="M918.361 1.16663C917.994 1.58616 917.884 3.22928 918.361 6.83052C919.167 12.9142 918.361 16.2704 918.361 17.8437" stroke="#29140F" stroke-opacity="0.8" stroke-width="1.92924" stroke-linecap="round"/>
<path d="M931.586 17.8437C931.744 17.6621 931.392 16.8524 931.586 13.214C931.69 11.2518 931.586 11.3076 931.586 10.6268" stroke="#29140F" stroke-opacity="0.8" stroke-width="1.92924" stroke-linecap="round"/>
<path d="M944.439 17.8437C944.975 15.0888 944.438 13.3164 944.439 12.6247C944.439 10.6597 944.439 11.3076 944.439 10.6268" stroke="#29140F" stroke-opacity="0.8" stroke-width="1.92924" stroke-linecap="round"/>
<path d="M957.53 10.6268C957.371 10.8084 957.724 11.6182 957.53 15.2565C957.425 17.2188 957.53 17.1629 957.53 17.8437" stroke="#29140F" stroke-opacity="0.8" stroke-width="1.92924" stroke-linecap="round"/>
<path d="M970.676 10.6268C970.676 11.6278 970.397 12.6001 970.396 13.2918C970.396 15.2569 970.872 16.3558 970.676 17.8437" stroke="#29140F" stroke-opacity="0.8" stroke-width="1.92924" stroke-linecap="round"/>
<path d="M983.848 1.16663C983.48 1.58616 983.371 3.22928 983.848 6.83052C984.653 12.9142 983.848 16.2704 983.848 17.8437" stroke="#29140F" stroke-opacity="0.8" stroke-width="1.92924" stroke-linecap="round"/>
<path d="M997.072 17.8437C997.231 17.6621 996.878 16.8524 997.072 13.214C997.177 11.2518 997.072 11.3076 997.072 10.6268" stroke="#29140F" stroke-opacity="0.8" stroke-width="1.92924" stroke-linecap="round"/>
<path d="M1009.93 17.8437C1010.46 15.0888 1009.92 13.3164 1009.93 12.6247C1009.93 10.6597 1009.93 11.3076 1009.93 10.6268" stroke="#29140F" stroke-opacity="0.8" stroke-width="1.92924" stroke-linecap="round"/>
<path d="M1023.02 10.6268C1022.86 10.8084 1023.21 11.6182 1023.02 15.2565C1022.91 17.2188 1023.02 17.1629 1023.02 17.8437" stroke="#29140F" stroke-opacity="0.8" stroke-width="1.92924" stroke-linecap="round"/>
</svg>
